<?xml version="1.0" standalone="no"?>
<!DOCTYPE svg PUBLIC "-//W3C//DTD SVG 20010904//EN"
 "http://www.w3.org/TR/2001/REC-SVG-20010904/DTD/svg10.dtd">
<svg version="1.0" xmlns="http://www.w3.org/2000/svg"
 width="640.000000pt" height="640.000000pt" viewBox="0 0 640.000000 640.000000"
 preserveAspectRatio="xMidYMid meet">

<g transform="translate(0.000000,640.000000) scale(0.100000,-0.100000)"
fill="#ff4757" stroke="none">
<path d="M1062 5144 c-59 -29 -106 -79 -136 -143 -21 -46 -21 -47 -24 -1396
-2 -929 1 -1372 8 -1420 17 -110 85 -198 179 -231 28 -10 211 -13 834 -14 559
0 797 -3 797 -11 0 -8 -107 -415 -126 -481 -4 -14 -16 -18 -48 -18 -68 0 -104
-10 -131 -38 -36 -36 -34 -91 4 -134 l29 -33 751 0 751 0 30 31 c48 47 41 120
-13 153 -12 8 -52 16 -89 19 -38 3 -68 7 -68 9 0 2 -29 113 -65 247 -36 133
-65 246 -65 249 0 4 366 8 813 9 l812 3 46 27 c56 33 94 76 123 138 21 45 21
46 21 1445 l0 1400 -24 52 c-26 60 -83 116 -145 144 -40 18 -108 19 -2127 19
l-2085 0 -52 -26z m4205 -200 l26 -26 -7 -1201 c-3 -660 -7 -1202 -9 -1203 -1
-1 -939 -5 -2084 -9 l-2083 -8 0 1212 0 1212 25 24 24 25 2041 0 2041 0 26
-26z m23 -2701 c-1 -51 -12 -73 -47 -91 -29 -16 -4035 -17 -4080 -2 -36 13
-53 46 -53 100 l0 40 2090 0 2090 0 0 -47z m-1759 -558 c36 -135 64 -247 61
-250 -3 -3 -180 -5 -394 -5 -304 0 -388 3 -388 13 0 6 28 119 62 249 l63 238
265 0 266 0 65 -245z"/>
<path d="M1453 4537 l-143 -143 0 -48 0 -48 137 -139 c137 -140 168 -161 220
-151 31 6 70 47 76 80 8 43 -15 81 -102 167 -45 44 -81 84 -81 90 0 6 38 49
85 95 109 108 125 158 68 215 -20 19 -36 25 -71 25 -45 0 -47 -1 -189 -143z"/>
<path d="M2193 4670 c-21 -9 -62 -73 -236 -376 -100 -173 -107 -205 -58 -255
40 -39 89 -40 131 -1 16 15 93 137 170 272 156 272 162 290 111 341 -31 30
-73 37 -118 19z"/>
<path d="M2507 4669 c-9 -5 -24 -24 -33 -41 -26 -51 -12 -85 67 -163 39 -39
80 -83 91 -98 l21 -29 -94 -94 c-91 -92 -94 -96 -94 -140 0 -60 36 -94 98 -94
40 0 46 5 189 148 158 158 165 170 134 230 -8 15 -75 87 -149 160 -126 125
-136 132 -173 132 -21 0 -47 -5 -57 -11z"/>
<path d="M4239 4475 c-38 -21 -43 -37 -49 -170 l-5 -120 -175 -5 c-105 -3
-183 -10 -195 -17 -11 -6 -66 -58 -122 -116 l-103 -106 0 -445 0 -444 30 -30
30 -30 627 -4 c467 -3 636 -1 659 8 65 25 64 14 64 487 0 352 -3 433 -14 455
-8 15 -62 74 -120 132 l-106 105 -180 3 -180 3 -1 92 c-1 51 -3 99 -4 107 -1
8 -3 23 -4 33 0 10 -14 32 -30 48 -33 33 -78 38 -122 14z m493 -562 l58 -57 0
-328 0 -328 -500 0 -500 0 0 326 0 325 57 60 56 59 386 0 385 0 58 -57z"/>
<path d="M4041 3716 c-37 -20 -50 -55 -51 -129 0 -101 31 -146 103 -147 79 0
126 101 98 208 -19 69 -89 102 -150 68z"/>
<path d="M4441 3716 c-37 -20 -50 -55 -51 -129 0 -101 31 -146 103 -147 76 0
120 83 102 191 -14 82 -87 122 -154 85z"/>
<path d="M1370 3729 c-38 -15 -60 -49 -60 -95 0 -54 35 -91 93 -99 23 -3 353
-5 734 -3 684 3 692 3 720 24 37 28 53 86 32 122 -8 15 -30 35 -49 44 -32 17
-88 18 -740 17 -436 0 -715 -4 -730 -10z"/>
<path d="M1339 3331 c-23 -23 -29 -38 -29 -71 0 -33 6 -48 29 -71 l29 -29 732
0 732 0 34 34 c37 37 43 70 20 115 -8 15 -26 32 -41 39 -19 9 -210 12 -751 12
l-726 0 -29 -29z"/>
<path d="M1370 2979 c-38 -15 -60 -49 -60 -96 0 -34 5 -46 31 -67 l31 -26 733
0 733 0 31 29 c36 33 42 81 15 120 -36 51 -30 51 -786 50 -434 0 -713 -4 -728
-10z"/>
</g>
</svg>
