<?xml version="1.0" encoding="UTF-8"?>
<svg viewBox="0 0 741.91925 628.67035" xmlns="http://www.w3.org/2000/svg" xmlns:xlink="http://www.w3.org/1999/xlink">
 <defs>
  <linearGradient id="o">
   <stop offset="0"/>
   <stop stop-color="#ffa225" offset="1"/>
  </linearGradient>
  <linearGradient id="a">
   <stop stop-color="#dc0000" offset="0"/>
   <stop stop-color="#ffb200" offset="1"/>
  </linearGradient>
  <linearGradient id="b">
   <stop stop-color="#fff" offset="0"/>
   <stop stop-color="#fff" stop-opacity="0" offset="1"/>
  </linearGradient>
  <linearGradient id="c">
   <stop stop-color="#fff" stop-opacity=".44927" offset="0"/>
   <stop stop-color="#fff" stop-opacity="0" offset="1"/>
  </linearGradient>
  <linearGradient id="ay" x1="545.09" x2="456.92" y1="265.62" y2="674.2" gradientUnits="userSpaceOnUse" xlink:href="#o"/>
  <linearGradient id="ax" x1="300.45" x2="301.04" y1="203.01" y2="454.96" gradientTransform="matrix(1.3506 0 0 1.134 -66.41 41.127)" gradientUnits="userSpaceOnUse" xlink:href="#o"/>
  <linearGradient id="aw" x1="-1006.6" x2="-953.88" y1="448.68" y2="299.89" gradientTransform="matrix(-.85503 .23005 .071101 2.6528 -208.78 -177.68)" gradientUnits="userSpaceOnUse" xlink:href="#a"/>
  <linearGradient id="n" x1="-1006.6" x2="-953.88" y1="448.68" y2="299.89" gradientTransform="matrix(.93941 0 0 1.4462 1125.5 -315.48)" gradientUnits="userSpaceOnUse" xlink:href="#a"/>
  <linearGradient id="m" x1="9.655" x2="323.1" y1="256.78" y2="500.8" gradientTransform="matrix(.80597 0 0 1.2408 18.001 -263.96)" gradientUnits="userSpaceOnUse" xlink:href="#b"/>
  <linearGradient id="l" x1="-1308.2" x2="-1335" y1="330.2" y2="272.82" gradientTransform="matrix(.70158 0 0 1.9364 1125.5 -315.48)" gradientUnits="userSpaceOnUse" xlink:href="#a"/>
  <linearGradient id="k" x1="284.69" x2="305.35" gradientUnits="userSpaceOnUse" xlink:href="#c"/>
  <linearGradient id="j" x1="-916.9" x2="-857.96" y1="438.47" y2="362.16" gradientTransform="matrix(.92675 0 0 1.466 1125.5 -315.48)" gradientUnits="userSpaceOnUse" xlink:href="#a"/>
  <linearGradient id="i" x1="501.4" x2="317.14" y1="384.4" y2="485.78" gradientTransform="matrix(.7951 0 0 1.2577 24.096 -278.86)" gradientUnits="userSpaceOnUse" xlink:href="#b"/>
  <linearGradient id="h" x1="322.01" x2="345.29" gradientUnits="userSpaceOnUse" xlink:href="#c"/>
  <linearGradient id="g" x1="-1131" x2="-1102.7" y1="404.58" y2="306.76" gradientTransform="matrix(.79621 0 0 1.7063 1125.5 -315.48)" gradientUnits="userSpaceOnUse" xlink:href="#a"/>
  <linearGradient id="f" x1="190.53" x2="212.77" gradientUnits="userSpaceOnUse" xlink:href="#c"/>
  <linearGradient id="e" x1="198.88" x2="342.54" y1="246.21" y2="403.09" gradientTransform="matrix(.68311 0 0 1.4639 22.742 -283.6)" gradientUnits="userSpaceOnUse" xlink:href="#b"/>
  <linearGradient id="d" x1="110.45" x2="239.46" y1="244.05" y2="376.9" gradientTransform="matrix(.60192 0 0 1.6614 26.3 -269.45)" gradientUnits="userSpaceOnUse" xlink:href="#b"/>
  <linearGradient id="av" x1="-916.9" x2="-857.96" y1="438.47" y2="362.16" gradientTransform="matrix(-.6169 -1.4264 -1.5446 .64665 695.3 -768.89)" gradientUnits="userSpaceOnUse" xlink:href="#a"/>
  <linearGradient id="au" x1="-1006.6" x2="-953.88" y1="448.68" y2="299.89" gradientTransform="matrix(.90591 0 0 1.8162 1349.1 -197.89)" gradientUnits="userSpaceOnUse" xlink:href="#a"/>
  <linearGradient id="at" x1="-1006.6" x2="-953.88" y1="448.68" y2="299.89" gradientTransform="matrix(-.83076 0 0 1.1753 -636.72 280.89)" gradientUnits="userSpaceOnUse" xlink:href="#a"/>
  <linearGradient id="as" x1="-1131" x2="-1102.7" y1="404.58" y2="306.76" gradientTransform="matrix(-1.3292 -.12596 -.20659 1.938 -1072.9 -74.756)" gradientUnits="userSpaceOnUse" xlink:href="#a"/>
  <linearGradient id="ar" x1="-1308.2" x2="-1335" y1="330.2" y2="272.82" gradientTransform="matrix(-1.1712 -.11099 -.23446 2.1994 -1364.3 -43.327)" gradientUnits="userSpaceOnUse" xlink:href="#a"/>
  <linearGradient id="aq" x1="9.655" x2="323.1" y1="256.78" y2="500.8" gradientTransform="matrix(.77922 0 0 .95143 80.495 372.65)" gradientUnits="userSpaceOnUse" xlink:href="#b"/>
  <linearGradient id="ap" x1="-1308.2" x2="-1335" y1="330.2" y2="272.82" gradientTransform="matrix(.6783 0 0 1.4849 1122.7 350.29)" gradientUnits="userSpaceOnUse" xlink:href="#a"/>
  <linearGradient id="ao" x1="486.91" x2="506.88" gradientUnits="userSpaceOnUse" xlink:href="#c"/>
  <linearGradient id="an" x1="-916.9" x2="-857.96" y1="438.47" y2="362.16" gradientTransform="matrix(.896 0 0 1.1241 1079.8 336.01)" gradientUnits="userSpaceOnUse" xlink:href="#a"/>
  <linearGradient id="am" x1="501.4" x2="317.14" y1="384.4" y2="485.78" gradientTransform="matrix(.76872 0 0 .96443 -50.755 381.22)" gradientUnits="userSpaceOnUse" xlink:href="#b"/>
  <linearGradient id="al" x1="522.99" x2="545.49" gradientUnits="userSpaceOnUse" xlink:href="#c"/>
  <linearGradient id="ak" x1="-1131" x2="-1102.7" y1="404.58" y2="306.76" gradientTransform="matrix(.76979 0 0 1.3084 991.26 358.86)" gradientUnits="userSpaceOnUse" xlink:href="#a"/>
  <linearGradient id="aj" x1="395.87" x2="417.38" gradientUnits="userSpaceOnUse" xlink:href="#c"/>
  <linearGradient id="ai" x1="198.88" x2="342.54" y1="246.21" y2="403.09" gradientTransform="matrix(.66044 0 0 1.1225 -34.922 363.3)" gradientUnits="userSpaceOnUse" xlink:href="#b"/>
  <linearGradient id="ah" x1="110.45" x2="239.46" y1="244.05" y2="376.9" gradientTransform="matrix(.58195 0 0 1.274 -114.34 362.73)" gradientUnits="userSpaceOnUse" xlink:href="#b"/>
  <linearGradient id="ag" x1="9.655" x2="323.1" y1="256.78" y2="500.8" gradientTransform="matrix(-.63648 0 0 .77714 651.76 462.22)" gradientUnits="userSpaceOnUse" xlink:href="#b"/>
  <linearGradient id="af" x1="-1308.2" x2="-1335" y1="330.2" y2="272.82" gradientTransform="matrix(-.55404 0 0 1.2129 -242.85 427.1)" gradientUnits="userSpaceOnUse" xlink:href="#a"/>
  <linearGradient id="ae" x1="586.86" x2="570.55" gradientUnits="userSpaceOnUse" xlink:href="#c"/>
  <linearGradient id="ad" x1="-916.9" x2="-857.96" y1="438.47" y2="362.16" gradientTransform="matrix(-.73186 0 0 .91819 -399.99 98.529)" gradientUnits="userSpaceOnUse" xlink:href="#a"/>
  <linearGradient id="ac" x1="501.4" x2="317.14" y1="384.4" y2="485.78" gradientTransform="matrix(-.6279 0 0 .78775 795.51 221.46)" gradientUnits="userSpaceOnUse" xlink:href="#b"/>
  <linearGradient id="ab" x1="557.39" x2="539.01" gradientUnits="userSpaceOnUse" xlink:href="#c"/>
  <linearGradient id="aa" x1="-1131" x2="-1102.7" y1="404.58" y2="306.76" gradientTransform="matrix(-.62877 0 0 1.0687 -437.14 435.67)" gradientUnits="userSpaceOnUse" xlink:href="#a"/>
  <linearGradient id="z" x1="552.65" x2="535.09" gradientUnits="userSpaceOnUse" xlink:href="#c"/>
  <linearGradient id="y" x1="198.88" x2="342.54" y1="246.21" y2="403.09" gradientTransform="matrix(-.53946 0 0 .9169 665.15 467.06)" gradientUnits="userSpaceOnUse" xlink:href="#b"/>
  <linearGradient id="x" x1="110.45" x2="239.46" y1="244.05" y2="376.9" gradientTransform="matrix(-.47534 0 0 1.0406 622.35 453.07)" gradientUnits="userSpaceOnUse" xlink:href="#b"/>
  <linearGradient id="w" x1="9.655" x2="323.1" y1="256.78" y2="500.8" gradientTransform="matrix(-1.3455 -.20732 -.15023 2.2915 858.34 -229.2)" gradientUnits="userSpaceOnUse" xlink:href="#b"/>
  <linearGradient id="v" x1="468.41" x2="502.45" gradientTransform="matrix(-1.0132 -.096018 -.19949 1.8714 1131.8 185.7)" gradientUnits="userSpaceOnUse" xlink:href="#c"/>
  <linearGradient id="u" x1="501.4" x2="317.14" y1="384.4" y2="485.78" gradientTransform="matrix(-1.3274 -.12578 -.15228 1.4285 727.11 -227.5)" gradientUnits="userSpaceOnUse" xlink:href="#b"/>
  <linearGradient id="t" x1="533.78" x2="572.41" gradientTransform="matrix(-1.0059 -.09532 -.20095 1.8851 1106.3 271.96)" gradientUnits="userSpaceOnUse" xlink:href="#c"/>
  <linearGradient id="s" x1="349.43" x2="390.32" gradientTransform="matrix(-.90837 -.08608 -.22252 2.0874 640.38 134.27)" gradientUnits="userSpaceOnUse" xlink:href="#c"/>
  <linearGradient id="r" x1="198.88" x2="342.54" y1="246.21" y2="403.09" gradientTransform="matrix(-.64326 -.30791 -.72775 1.2287 1123.5 23.075)" gradientUnits="userSpaceOnUse" xlink:href="#b"/>
  <linearGradient id="q" x1="110.45" x2="239.46" y1="244.05" y2="376.9" gradientTransform="matrix(-1.2069 -.12824 -.2416 2.5413 775.11 -276.96)" gradientUnits="userSpaceOnUse" xlink:href="#b"/>
  <linearGradient id="p" x2="0" y1="797.21" y2="536.87" gradientUnits="userSpaceOnUse" xlink:href="#a"/>
 </defs>
 <g transform="translate(16.766 -239.03)" fill-rule="evenodd">
  <path d="m-7.7701 251.31h729.38v611.49h-729.38z" fill="url(#ay)" stroke="url(#ax)" stroke-width="2.8463"/>
  <path d="m721.02 644.69c-14.799 109.62-41.168 172.74-90.937 192.53-53.981 50.271-106.92-8.5816-95.512-126.36 7.2239 22.599 11.784 34.711 23.271 38.556-6.1577-61.835 22.207-80.137 6.4598-144.19-10.846-39.231-18.006-89.058-2.0433-135.5 8.3743 45.765 17.9 75.215 36.184 105.51-3.4015-57.774-19.909-100.82-12.187-158.38-2.308-36.727 27.946-43.8 25.171-157.23 20.493 43.572 29.649 78.99 28.745 153.93 8.7008 57.949 26.63 75 25.208 140.47 1.6629-36.728 2.6651-68.477-1.7244-93.973 1.2224-33.408 2.5726-62.049 18.244-89.741-3.9006 42.132-8.0361 105.14 9.4598 115.9 5.2563 18.327 30.714 79.237 7.5192 191.65 7.3808-11.056 14.932-15.755 22.142-33.168z" fill="url(#aw)" stroke="#ff0" stroke-opacity=".50382" stroke-width="2.7963"/>
  <path d="m571.78 387.88c-9.5206 35.15-13.135 75.716-11.24 112.53 1.2564 17.835-2.7201 37.043-5.4814 54.941-5.1715 27.213-9.7742 56.403-7.7851 83.815-0.1718 16.462-3.5961 1.6842-3.3987-6.6518-1.8896-22.213-2.9287-45.713-1.2437-69.517-1.4039-21.624-4.2529-44.392-12.489-54.903 2.8081 25.09 6.3823 53.161 1.0654 81.179-1.9174 9.4555-6.4792 14.083-7.2738 24.675-9.0116 43.545-8.9435 92.117-0.9423 129.34 1.6784 8.5516 3.8138 16.445 5.6907 24.709-5.4924-4.3019-11.471-6.0825-16.795-11.151 7.9933 44.567 22.463 85.07 44.378 92.901 8.6332 3.9756 17.924 0.82376 26.955-0.45138 19.908 4.096 44.173-17.488 56.509-63.22 7.2535-26.517 8.8678-58.167 5.8158-84.47-3.1736 17.632-8.9147 33.526-16.537 41.496 1.4325-21.301-1.5978-40.359-6.4947-55.481-5.2828-16.107-6.8411-39.058-3.2023-61.188 5.5265-33.252 9.4772-72.107 1.9423-99.993-2.4107-13.413-3.7923-3.7319-4.7228 7.1033-4.055 34.598-12.866 66.742-22.961 95.591 0.1828-33.296 4.6917-66.993 6.2924-100.44 0.9468-17.107-0.7264-32.946-2.4992-48.152-1.3234-17.424-9.6514-22.493-13.355-36.114-6.4847-17.327-8.9484-41.694-9.7098-65.913l-2.5192 9.3643z" fill-opacity=".40541"/>
  <path d="m504.49 266.56c-23.124 24.711-37.61 55.323-42.192 84.572-1.6601 14.267-12.268 28.118-20.589 41.293-14.263 19.755-27.999 41.214-30.455 63.158-3.7356 12.79-6.3039 0.29279-4.2295-6.1525 1.53-17.86 4.7374-36.483 12.516-54.569 2.2102-17.263 2.2693-35.829-9.1563-46.365-0.61335 20.365-0.58396 43.272-15.256 63.614-5.1553 6.8302-13.674 9.1446-17.21 17.179-24.042 31.403-34.112 69.304-28.676 100.61 0.98445 7.1458 2.8632 13.908 4.2366 20.886-8.1867-4.9141-17.707-7.9998-25.454-13.464 3.8835 37.027 19.336 72.722 53.96 85.051 13.453 5.5511 29.488 5.7302 44.7 7.2992 32.085 8.8454 76.764-1.1006 106.76-33.265 17.562-18.622 26.869-42.847 27.333-64.228-8.9484 12.851-21.781 23.616-36.064 27.669 6.8364-16.206 5.8173-31.929 0.88431-45.113-5.365-14.061-3.1319-32.403 7.5293-48.63 16.116-24.365 30.8-53.546 24.178-77.434-1.177-11.146-5.493-3.987-9.3044 4.1993-13.964 25.832-35.282 48.401-58.036 68.035 7.2832-25.916 21.809-50.917 31.471-76.55 5.1533-13.073 5.7054-25.901 5.9596-38.263 1.4631-13.965-11.255-20.282-14.528-31.956-7.0981-15.354-6.0663-35.058-2.2489-54.162l-6.132 6.5883z" fill-opacity=".40541"/>
  <path d="m175.65 292.46c-29.165 29.23-41.534 66.559-37.816 102.96 2.7785 17.799-9.6189 34.37-18.444 50.27-16.229 23.702-30.91 49.586-26.472 76.971-1.2802 15.779-10.464-0.13008-9.4969-8.0666-4.3983-22.326-6.2794-45.478-0.27992-67.594-3.024-21.521-10.166-44.851-33.448-58.994 6.9134 25.546 15.897 54.338-0.79037 78.745-5.987 8.1768-19.38 10.413-22.179 20.231-28.095 37.568-30.212 84.406-8.8818 124.18 4.439 9.0587 10.229 17.706 15.255 26.584-15.654-6.8229-32.833-11.453-47.964-18.932 20.958 46.843 60.809 92.925 123.72 111.16 24.739 8.0395 51.718 9.5316 77.855 12.705 57.29 13.652 128.38 4.6817 166.18-33.373 22.208-22.016 28.377-51.728 20.817-78.562-10.004 15.444-27.339 27.96-49.726 31.925 5.1511-19.828-2.6913-39.669-16.111-56.629-14.487-18.096-17.893-40.972-6.3319-60.523 17.541-29.348 30.8-64.864 10.371-95.408-6.322-14.101-10.773-5.4448-13.976 4.5426-13.357 31.363-40.329 58.042-70.852 80.921 2.1138-31.996 16.738-62.269 22.954-93.722 3.5488-16.023-0.52796-32.102-4.9228-47.618-2.9915-17.436-26.797-26.38-36.841-41.311-17.899-19.858-23.853-44.54-24.898-68.248l-7.7203 7.7956z" fill-opacity=".40541"/>
  <g transform="matrix(-1.5617 -.1669 -.11326 1.1983 567.14 241.91)">
   <path d="m135.31 265.02c19.348 57.177 49.958 87.498 104.82 90.964 60.354 19.348 116.38-20.214 100.49-82.3-7.2193 13.284-11.84 20.503-24.257 24.257 4.9092-34.364-26.567-40.139-11.262-77.102 10.685-22.813 17.038-50.824-1.7326-73.637-7.7969 25.99-17.326 43.316-36.385 62.375 2.0214-31.765 18.77-57.466 8.6632-87.498 1.4439-20.214-31.765-19.637-32.054-81.434-21.08 26.567-30.032 47.07-26.856 87.498-7.7969 32.631-26.856 44.471-23.391 79.701-2.8877-19.637-4.9091-36.674-0.86633-51.113-2.3102-17.904-4.6204-33.209-22.524-45.915 5.4867 22.236 11.84 55.733-6.9306 64.108-5.1979 10.685-31.187 47.359-2.599 104.82-8.3744-4.9091-16.749-6.353-25.123-14.727z" fill="url(#n)" stroke="#ff0" stroke-opacity=".50382" stroke-width="2.1563"/>
   <path d="m237.31 53.087c-14.993 19.685-21.351 44.824-19.44 69.337 1.4282 11.987-4.9447 23.146-9.4816 33.854-8.3427 15.962-15.89 33.394-13.608 51.836-0.65803 10.627-5.3792-0.0876-4.882-5.4325-2.261-15.035-3.228-30.627-0.14386-45.521-1.5545-14.494-5.2259-30.205-17.194-39.73 3.554 17.204 8.1721 36.594-0.40625 53.031-3.0778 5.5067-9.9624 7.0124-11.401 13.625-14.443 25.3-15.531 56.843-4.5658 83.628 2.2819 6.1006 5.2584 11.924 7.8421 17.903-8.0473-4.5949-16.878-7.7132-24.656-12.75 10.774 31.546 31.26 62.581 63.599 74.858 12.718 5.4142 26.586 6.4191 40.022 8.5564 29.45 9.1939 65.997 3.1529 85.427-22.475 11.416-14.827 14.587-34.836 10.701-52.908-5.1426 10.401-14.054 18.83-25.562 21.5 2.648-13.353-1.3835-26.715-8.2821-38.137-7.4472-12.187-9.1982-27.592-3.255-40.759 9.0174-19.765 15.833-43.683 5.3314-64.253-3.25-9.4961-5.5378-3.6668-7.1843 3.0592-6.8663 21.121-20.731 39.089-36.422 54.496 1.0866-21.548 8.6046-41.935 11.8-63.117 1.8243-10.791-0.2714-21.619-2.5305-32.069-1.5378-11.742-13.776-17.766-18.939-27.821-9.2013-13.374-12.262-29.995-12.799-45.962l-3.9688 5.25z" fill="url(#m)"/>
   <path d="m234.07 347.32c-45.915-48.514-53.712-82.3-23.391-114.35 34.075-60.642 25.701-98.76 0.86632-135.15 23.391 80.568-27.722 132.55-44.182 155.94-9.8183-30.321-1.4439-43.316 12.128-80.568-26.567 28.877-42.738 63.819-32.92 97.028 17.904 49.958 60.065 60.931 87.498 77.102z" fill="url(#l)" stroke="#ff0" stroke-opacity=".50382" stroke-width="2.1563"/>
   <path d="m289.79 164.02c-6.1548-17.901-1.1322-21.735 4.2592-29.555 5.5616-2.1661 3.857-9.7187 6.8919-26.538 4.5952 18.773 16.931 27.309-11.151 56.093z" fill="#ffd700" stroke="#ff0" stroke-opacity=".50382" stroke-width="2.1563"/>
   <path d="m296.71 104.99c-1.8714 7.9803-1.0254 16.775-4.5 24.219-8.1411 6.2194-11.691 17.776-8.1212 27.584 1.1083 8.2199 3.6793 9.638 8.2371 2.1319 9.7319-10.014 18.837-24.363 13.296-38.712-2.5003-7.3188-4.6896-14.749-7.4746-21.972l-1.4375 6.75z" fill="url(#k)"/>
   <path d="m329.36 273.69c15.883-15.305 12.706-21.947 11.262-32.92-4.6204-5.1979 1.1551-12.128 6.9306-31.188-14.727 17.038-32.054 19.348-18.193 64.108z" fill="#ffd700" stroke="#ff0" stroke-opacity=".50382" stroke-width="2.1563"/>
   <path d="m254.86 347.32c17.904-10.107 22.813-41.872 25.123-77.102 4.3316-34.075 12.995-68.15 70.172-73.637-23.391 18.77-42.45 41.872-33.786 84.899-2.3102 62.664-48.803 60.354-61.509 65.84z" fill="url(#j)" stroke="#ff0" stroke-opacity=".50382" stroke-width="2.1563"/>
   <path d="m343.56 191.6c-24.381 3.4569-49.512 18.105-56.668 42.983-11.484 31.097-5.138 66.49-20.8 96.361-5.9481 2.585-4.494 13.674 2.8518 11.505 21.516-3.9012 41.938-18.849 47.389-40.786 5.2576-15.234 2.2764-31.35 1.717-46.997 0.71542-22.693 13.855-43.158 31.105-57.159 3.0196-4.349-2.0166-5.8119-5.5938-5.9063z" fill="url(#i)"/>
   <path d="m343.86 203.49c-9.825 10.4-24.078 20.133-23.735 36.124-0.72619 11.456 3.3535 22.38 5.8909 33.376 8.5287-8.1385 18.223-18.74 15.099-31.575-0.02222-5.6554-4.2846-10.602-0.93838-16.113 3.2139-8.7256 6.5759-17.408 8.8082-26.469l-5.125 4.6562z" fill="url(#h)"/>
   <path d="m223.67 323.93c-2.3102-27.722-5.4867-47.648 29.455-72.771 59.198-41.294 30.032-65.263-6.9306-108.29 10.973 42.738-6.6418 76.814-21.658 99.627-9.8183 14.15-43.893 43.027-0.86631 81.434z" fill="url(#g)" stroke="#ff0" stroke-opacity=".50382" stroke-width="2.1563"/>
   <path d="m201.09 120.58c15.988-18.41 11.882-25.988 9.2708-38.664-5.5549-5.8435 0.13128-14.122 4.6817-36.476-14.559 20.374-33.348 23.763-13.952 75.141z" fill="#ffd700" stroke="#ff0" stroke-opacity=".50382" stroke-width="2.1563"/>
   <path d="m211.21 41.518c-9.3097 12.174-23.427 23.408-22.688 40.281-0.10028 14.029 5.4291 27.118 9.5625 40.281 8.4403-9.6347 17.42-21.87 13.664-35.446 0.02575-5.3716-3.737-9.5419-3.8454-14.615 2.0569-11.975 6.3126-23.543 7.9944-35.626l-4.6875 5.125z" fill="url(#f)"/>
   <path d="m245.3 135.71c6.4051 29.135-0.19164 59.828-14.936 85.425-9.1536 17.597-27.201 31.074-28.921 52.011-2.7585 18.244 10.387 33.451 22.569 45.241 4.9618 6.239 0.70889-8.5105 1.3842-11.963-1.9797-17.949 1.0987-38.088 15.582-50.4 16.125-15.687 39.124-26.562 46.848-49.109 5.2243-19.913-8.6967-37.762-20.839-51.902-7.3227-8.8853-15.043-17.406-22.72-25.99l1.0312 6.6875z" fill="url(#e)"/>
   <path d="m216.21 109.86c0.63387 13.778 4.5511 27.421 2.7573 41.328-1.5823 32.467-15.848 62.999-35.542 88.414-3.6534 5.1912-7.5445 10.209-11.309 15.32-5.0342-16.773-2.7616-34.858 4.0186-50.775 3.5705-8.5047 6.0765-17.332 7.3876-26.475-18.821 17.169-32.104 40.574-36.781 65.625-3.7916 23.169 4.3591 46.99 19.73 64.403 19.327 22.801 47.117 35.614 74.051 47.066-15.262-21.468-36.508-40.839-41.02-67.962-3.095-15.749 3.1067-31.557 13.45-43.332 11.839-16.266 19.213-35.615 23.594-55.146 5.6889-25.436 1.1286-52.94-12.773-74.997-3.4304-2.5077-9.56-15.684-7.5625-3.4688z" fill="url(#d)"/>
  </g>
  <g transform="matrix(1.357 .31743 -.072412 1.7243 67.051 110.57)">
   <path d="m135.31 265.02c19.348 57.177 49.958 87.498 104.82 90.964 60.354 19.348 116.38-20.214 100.49-82.3-7.2193 13.284-11.84 20.503-24.257 24.257 4.9092-34.364-26.567-40.139-11.262-77.102 10.685-22.813 17.038-50.824-1.7326-73.637-7.7969 25.99-17.326 43.316-36.385 62.375 2.0214-31.765 18.77-57.466 8.6632-87.498 1.4439-20.214-31.765-19.637-32.054-81.434-21.08 26.567-30.032 47.07-26.856 87.498-7.7969 32.631-26.856 44.471-23.391 79.701-2.8877-19.637-4.9091-36.674-0.86633-51.113-2.3102-17.904-4.6204-33.209-22.524-45.915 5.4867 22.236 11.84 55.733-6.9306 64.108-5.1979 10.685-31.187 47.359-2.599 104.82-8.3744-4.9091-16.749-6.353-25.123-14.727z" fill="url(#n)" stroke="#ff0" stroke-opacity=".50382" stroke-width="2.1563"/>
   <path d="m237.31 53.087c-14.993 19.685-21.351 44.824-19.44 69.337 1.4282 11.987-4.9447 23.146-9.4816 33.854-8.3427 15.962-15.89 33.394-13.608 51.836-0.65803 10.627-5.3792-0.0876-4.882-5.4325-2.261-15.035-3.228-30.627-0.14386-45.521-1.5545-14.494-5.2259-30.205-17.194-39.73 3.554 17.204 8.1721 36.594-0.40625 53.031-3.0778 5.5067-9.9624 7.0124-11.401 13.625-14.443 25.3-15.531 56.843-4.5658 83.628 2.2819 6.1006 5.2584 11.924 7.8421 17.903-8.0473-4.5949-16.878-7.7132-24.656-12.75 10.774 31.546 31.26 62.581 63.599 74.858 12.718 5.4142 26.586 6.4191 40.022 8.5564 29.45 9.1939 65.997 3.1529 85.427-22.475 11.416-14.827 14.587-34.836 10.701-52.908-5.1426 10.401-14.054 18.83-25.562 21.5 2.648-13.353-1.3835-26.715-8.2821-38.137-7.4472-12.187-9.1982-27.592-3.255-40.759 9.0174-19.765 15.833-43.683 5.3314-64.253-3.25-9.4961-5.5378-3.6668-7.1843 3.0592-6.8663 21.121-20.731 39.089-36.422 54.496 1.0866-21.548 8.6046-41.935 11.8-63.117 1.8243-10.791-0.2714-21.619-2.5305-32.069-1.5378-11.742-13.776-17.766-18.939-27.821-9.2013-13.374-12.262-29.995-12.799-45.962l-3.9688 5.25z" fill="url(#m)"/>
   <path d="m234.07 347.32c-45.915-48.514-53.712-82.3-23.391-114.35 34.075-60.642 25.701-98.76 0.86632-135.15 23.391 80.568-27.722 132.55-44.182 155.94-9.8183-30.321-1.4439-43.316 12.128-80.568-26.567 28.877-42.738 63.819-32.92 97.028 17.904 49.958 60.065 60.931 87.498 77.102z" fill="url(#l)" stroke="#ff0" stroke-opacity=".50382" stroke-width="2.1563"/>
   <path d="m289.79 164.02c-6.1548-17.901-1.1322-21.735 4.2592-29.555 5.5616-2.1661 3.857-9.7187 6.8919-26.538 4.5952 18.773 16.931 27.309-11.151 56.093z" fill="#ffd700" stroke="#ff0" stroke-opacity=".50382" stroke-width="2.1563"/>
   <path d="m296.71 104.99c-1.8714 7.9803-1.0254 16.775-4.5 24.219-8.1411 6.2194-11.691 17.776-8.1212 27.584 1.1083 8.2199 3.6793 9.638 8.2371 2.1319 9.7319-10.014 18.837-24.363 13.296-38.712-2.5003-7.3188-4.6896-14.749-7.4746-21.972l-1.4375 6.75z" fill="url(#k)"/>
   <path d="m329.36 273.69c15.883-15.305 12.706-21.947 11.262-32.92-4.6204-5.1979 1.1551-12.128 6.9306-31.188-14.727 17.038-32.054 19.348-18.193 64.108z" fill="#ffd700" stroke="#ff0" stroke-opacity=".50382" stroke-width="2.1563"/>
   <path d="m254.86 347.32c17.904-10.107 22.813-41.872 25.123-77.102 4.3316-34.075 12.995-68.15 70.172-73.637-23.391 18.77-42.45 41.872-33.786 84.899-2.3102 62.664-48.803 60.354-61.509 65.84z" fill="url(#j)" stroke="#ff0" stroke-opacity=".50382" stroke-width="2.1563"/>
   <path d="m343.56 191.6c-24.381 3.4569-49.512 18.105-56.668 42.983-11.484 31.097-5.138 66.49-20.8 96.361-5.9481 2.585-4.494 13.674 2.8518 11.505 21.516-3.9012 41.938-18.849 47.389-40.786 5.2576-15.234 2.2764-31.35 1.717-46.997 0.71542-22.693 13.855-43.158 31.105-57.159 3.0196-4.349-2.0166-5.8119-5.5938-5.9063z" fill="url(#i)"/>
   <path d="m343.86 203.49c-9.825 10.4-24.078 20.133-23.735 36.124-0.72619 11.456 3.3535 22.38 5.8909 33.376 8.5287-8.1385 18.223-18.74 15.099-31.575-0.02222-5.6554-4.2846-10.602-0.93838-16.113 3.2139-8.7256 6.5759-17.408 8.8082-26.469l-5.125 4.6562z" fill="url(#h)"/>
   <path d="m223.67 323.93c-2.3102-27.722-5.4867-47.648 29.455-72.771 59.198-41.294 30.032-65.263-6.9306-108.29 10.973 42.738-6.6418 76.814-21.658 99.627-9.8183 14.15-43.893 43.027-0.86631 81.434z" fill="url(#g)" stroke="#ff0" stroke-opacity=".50382" stroke-width="2.1563"/>
   <path d="m201.09 120.58c15.988-18.41 11.882-25.988 9.2708-38.664-5.5549-5.8435 0.13128-14.122 4.6817-36.476-14.559 20.374-33.348 23.763-13.952 75.141z" fill="#ffd700" stroke="#ff0" stroke-opacity=".50382" stroke-width="2.1563"/>
   <path d="m211.21 41.518c-9.3097 12.174-23.427 23.408-22.688 40.281-0.10028 14.029 5.4291 27.118 9.5625 40.281 8.4403-9.6347 17.42-21.87 13.664-35.446 0.02575-5.3716-3.737-9.5419-3.8454-14.615 2.0569-11.975 6.3126-23.543 7.9944-35.626l-4.6875 5.125z" fill="url(#f)"/>
   <path d="m245.3 135.71c6.4051 29.135-0.19164 59.828-14.936 85.425-9.1536 17.597-27.201 31.074-28.921 52.011-2.7585 18.244 10.387 33.451 22.569 45.241 4.9618 6.239 0.70889-8.5105 1.3842-11.963-1.9797-17.949 1.0987-38.088 15.582-50.4 16.125-15.687 39.124-26.562 46.848-49.109 5.2243-19.913-8.6967-37.762-20.839-51.902-7.3227-8.8853-15.043-17.406-22.72-25.99l1.0312 6.6875z" fill="url(#e)"/>
   <path d="m216.21 109.86c0.63387 13.778 4.5511 27.421 2.7573 41.328-1.5823 32.467-15.848 62.999-35.542 88.414-3.6534 5.1912-7.5445 10.209-11.309 15.32-5.0342-16.773-2.7616-34.858 4.0186-50.775 3.5705-8.5047 6.0765-17.332 7.3876-26.475-18.821 17.169-32.104 40.574-36.781 65.625-3.7916 23.169 4.3591 46.99 19.73 64.403 19.327 22.801 47.117 35.614 74.051 47.066-15.262-21.468-36.508-40.839-41.02-67.962-3.095-15.749 3.1067-31.557 13.45-43.332 11.839-16.266 19.213-35.615 23.594-55.146 5.6889-25.436 1.1286-52.94-12.773-74.997-3.4304-2.5077-9.56-15.684-7.5625-3.4688z" fill="url(#d)"/>
  </g>
  <path d="m468.1 642.81c-3.8252 20.575 1.6226 40.062 13.489 54.756 6.2015 6.9236 5.7512 17.459 6.5942 26.73-0.01977 14.659 1.2225 29.837 10.832 40.445 3.9429 7.1596-4.3833 2.7997-6.2322-0.88959-8.158-8.4351-15.505-17.914-19.284-29.096-7.359-8.4631-16.941-16.583-30.623-16.333 10.116 9.1386 22.012 19.113 22.002 34.201-0.16805 5.163-5.0968 9.783-3.4751 14.785-1.0163 23.882 11.386 44.674 31.525 56.018 4.4126 2.6982 9.2699 4.8501 13.875 7.3099-8.4371 1.3277-16.886 4.0178-25.291 4.9192 21.989 14.497 51.61 23.51 82.91 14.208 12.556-3.2821 24.185-10.001 35.941-15.765 27.668-9.7435 54.654-33.018 59.562-59.757 2.981-15.563-2.8821-30.07-13.632-39.588 0.22426 9.3956-3.4266 19.529-11.602 27.35-3.4831-9.9633-12.367-16.386-22.751-20.043-11.149-3.8563-19.051-12.799-19.793-24.393-1.0364-17.454-5.6005-36.4-22.748-44.008-6.6246-4.3603-6.0186 0.59012-4.5168 5.7747 3.3457 17.181-0.29165 36.057-6.4824 54.261-8.1954-14.386-10.706-31.443-17.043-46.714-3.0697-7.8839-9.3226-13.711-15.548-19.208-6.1869-6.7086-18.611-4.0717-27.018-7.7744-13.066-3.6854-22.538-12.713-29.695-22.66l-0.99608 5.4715z" fill-opacity=".40541"/>
  <g transform="matrix(1.1172 .018471 -.0072948 1.8439 -164.44 193.09)">
   <path d="m135.31 265.02c19.348 57.177 49.958 87.498 104.82 90.964 60.354 19.348 116.38-20.214 100.49-82.3-7.2193 13.284-11.84 20.503-24.257 24.257 4.9092-34.364-26.567-40.139-11.262-77.102 10.685-22.813 17.038-50.824-1.7326-73.637-7.7969 25.99-17.326 43.316-36.385 62.375 2.0214-31.765 18.77-57.466 8.6632-87.498 1.4439-20.214-31.765-19.637-32.054-81.434-21.08 26.567-30.032 47.07-26.856 87.498-7.7969 32.631-26.856 44.471-23.391 79.701-2.8877-19.637-4.9091-36.674-0.86633-51.113-2.3102-17.904-4.6204-33.209-22.524-45.915 5.4867 22.236 11.84 55.733-6.9306 64.108-5.1979 10.685-31.187 47.359-2.599 104.82-8.3744-4.9091-16.749-6.353-25.123-14.727z" fill="url(#n)" stroke="#ff0" stroke-opacity=".50382" stroke-width="2.1563"/>
   <path d="m237.31 53.087c-14.993 19.685-21.351 44.824-19.44 69.337 1.4282 11.987-4.9447 23.146-9.4816 33.854-8.3427 15.962-15.89 33.394-13.608 51.836-0.65803 10.627-5.3792-0.0876-4.882-5.4325-2.261-15.035-3.228-30.627-0.14386-45.521-1.5545-14.494-5.2259-30.205-17.194-39.73 3.554 17.204 8.1721 36.594-0.40625 53.031-3.0778 5.5067-9.9624 7.0124-11.401 13.625-14.443 25.3-15.531 56.843-4.5658 83.628 2.2819 6.1006 5.2584 11.924 7.8421 17.903-8.0473-4.5949-16.878-7.7132-24.656-12.75 10.774 31.546 31.26 62.581 63.599 74.858 12.718 5.4142 26.586 6.4191 40.022 8.5564 29.45 9.1939 65.997 3.1529 85.427-22.475 11.416-14.827 14.587-34.836 10.701-52.908-5.1426 10.401-14.054 18.83-25.562 21.5 2.648-13.353-1.3835-26.715-8.2821-38.137-7.4472-12.187-9.1982-27.592-3.255-40.759 9.0174-19.765 15.833-43.683 5.3314-64.253-3.25-9.4961-5.5378-3.6668-7.1843 3.0592-6.8663 21.121-20.731 39.089-36.422 54.496 1.0866-21.548 8.6046-41.935 11.8-63.117 1.8243-10.791-0.2714-21.619-2.5305-32.069-1.5378-11.742-13.776-17.766-18.939-27.821-9.2013-13.374-12.262-29.995-12.799-45.962l-3.9688 5.25z" fill="url(#m)"/>
   <path d="m234.07 347.32c-45.915-48.514-53.712-82.3-23.391-114.35 34.075-60.642 25.701-98.76 0.86632-135.15 23.391 80.568-27.722 132.55-44.182 155.94-9.8183-30.321-1.4439-43.316 12.128-80.568-26.567 28.877-42.738 63.819-32.92 97.028 17.904 49.958 60.065 60.931 87.498 77.102z" fill="url(#l)" stroke="#ff0" stroke-opacity=".50382" stroke-width="2.1563"/>
   <path d="m289.79 164.02c-6.1548-17.901-1.1322-21.735 4.2592-29.555 5.5616-2.1661 3.857-9.7187 6.8919-26.538 4.5952 18.773 16.931 27.309-11.151 56.093z" fill="#ffd700" stroke="#ff0" stroke-opacity=".50382" stroke-width="2.1563"/>
   <path d="m296.71 104.99c-1.8714 7.9803-1.0254 16.775-4.5 24.219-8.1411 6.2194-11.691 17.776-8.1212 27.584 1.1083 8.2199 3.6793 9.638 8.2371 2.1319 9.7319-10.014 18.837-24.363 13.296-38.712-2.5003-7.3188-4.6896-14.749-7.4746-21.972l-1.4375 6.75z" fill="url(#k)"/>
   <path d="m329.36 273.69c15.883-15.305 12.706-21.947 11.262-32.92-4.6204-5.1979 1.1551-12.128 6.9306-31.188-14.727 17.038-32.054 19.348-18.193 64.108z" fill="#ffd700" stroke="#ff0" stroke-opacity=".50382" stroke-width="2.1563"/>
   <path d="m254.86 347.32c17.904-10.107 22.813-41.872 25.123-77.102 4.3316-34.075 12.995-68.15 70.172-73.637-23.391 18.77-42.45 41.872-33.786 84.899-2.3102 62.664-48.803 60.354-61.509 65.84z" fill="url(#j)" stroke="#ff0" stroke-opacity=".50382" stroke-width="2.1563"/>
   <path d="m343.56 191.6c-24.381 3.4569-49.512 18.105-56.668 42.983-11.484 31.097-5.138 66.49-20.8 96.361-5.9481 2.585-4.494 13.674 2.8518 11.505 21.516-3.9012 41.938-18.849 47.389-40.786 5.2576-15.234 2.2764-31.35 1.717-46.997 0.71542-22.693 13.855-43.158 31.105-57.159 3.0196-4.349-2.0166-5.8119-5.5938-5.9063z" fill="url(#i)"/>
   <path d="m343.86 203.49c-9.825 10.4-24.078 20.133-23.735 36.124-0.72619 11.456 3.3535 22.38 5.8909 33.376 8.5287-8.1385 18.223-18.74 15.099-31.575-0.02222-5.6554-4.2846-10.602-0.93838-16.113 3.2139-8.7256 6.5759-17.408 8.8082-26.469l-5.125 4.6562z" fill="url(#h)"/>
   <path d="m223.67 323.93c-2.3102-27.722-5.4867-47.648 29.455-72.771 59.198-41.294 30.032-65.263-6.9306-108.29 10.973 42.738-6.6418 76.814-21.658 99.627-9.8183 14.15-43.893 43.027-0.86631 81.434z" fill="url(#g)" stroke="#ff0" stroke-opacity=".50382" stroke-width="2.1563"/>
   <path d="m201.09 120.58c15.988-18.41 11.882-25.988 9.2708-38.664-5.5549-5.8435 0.13128-14.122 4.6817-36.476-14.559 20.374-33.348 23.763-13.952 75.141z" fill="#ffd700" stroke="#ff0" stroke-opacity=".50382" stroke-width="2.1563"/>
   <path d="m211.21 41.518c-9.3097 12.174-23.427 23.408-22.688 40.281-0.10028 14.029 5.4291 27.118 9.5625 40.281 8.4403-9.6347 17.42-21.87 13.664-35.446 0.02575-5.3716-3.737-9.5419-3.8454-14.615 2.0569-11.975 6.3126-23.543 7.9944-35.626l-4.6875 5.125z" fill="url(#f)"/>
   <path d="m245.3 135.71c6.4051 29.135-0.19164 59.828-14.936 85.425-9.1536 17.597-27.201 31.074-28.921 52.011-2.7585 18.244 10.387 33.451 22.569 45.241 4.9618 6.239 0.70889-8.5105 1.3842-11.963-1.9797-17.949 1.0987-38.088 15.582-50.4 16.125-15.687 39.124-26.562 46.848-49.109 5.2243-19.913-8.6967-37.762-20.839-51.902-7.3227-8.8853-15.043-17.406-22.72-25.99l1.0312 6.6875z" fill="url(#e)"/>
   <path d="m216.21 109.86c0.63387 13.778 4.5511 27.421 2.7573 41.328-1.5823 32.467-15.848 62.999-35.542 88.414-3.6534 5.1912-7.5445 10.209-11.309 15.32-5.0342-16.773-2.7616-34.858 4.0186-50.775 3.5705-8.5047 6.0765-17.332 7.3876-26.475-18.821 17.169-32.104 40.574-36.781 65.625-3.7916 23.169 4.3591 46.99 19.73 64.403 19.327 22.801 47.117 35.614 74.051 47.066-15.262-21.468-36.508-40.839-41.02-67.962-3.095-15.749 3.1067-31.557 13.45-43.332 11.839-16.266 19.213-35.615 23.594-55.146 5.6889-25.436 1.1286-52.94-12.773-74.997-3.4304-2.5077-9.56-15.684-7.5625-3.4688z" fill="url(#d)"/>
  </g>
  <path d="m576.51 863.52c-1.2688-32.015 28.932-53.582 64.514-72.678 33.02-21.698 63.156-50.062 30.876-140.49-4.2067 44.281-15.861 83.805-66.963 89.452-64.487 31.197-31.104 101.74-28.427 123.71z" fill="url(#av)" stroke="#ff0" stroke-opacity=".50382" stroke-width="2.9842"/>
  <g transform="matrix(-1.5889 0 0 1.2129 879.87 194.89)">
   <path d="m135.31 265.02c19.348 57.177 49.958 87.498 104.82 90.964 60.354 19.348 116.38-20.214 100.49-82.3-7.2193 13.284-11.84 20.503-24.257 24.257 4.9092-34.364-26.567-40.139-11.262-77.102 10.685-22.813 17.038-50.824-1.7326-73.637-7.7969 25.99-17.326 43.316-36.385 62.375 2.0214-31.765 18.77-57.466 8.6632-87.498 1.4439-20.214-31.765-19.637-32.054-81.434-21.08 26.567-30.032 47.07-26.856 87.498-7.7969 32.631-26.856 44.471-23.391 79.701-2.8877-19.637-4.9091-36.674-0.86633-51.113-2.3102-17.904-4.6204-33.209-22.524-45.915 5.4867 22.236 11.84 55.733-6.9306 64.108-5.1979 10.685-31.187 47.359-2.599 104.82-8.3744-4.9091-16.749-6.353-25.123-14.727z" fill="url(#n)" stroke="#ff0" stroke-opacity=".50382" stroke-width="2.1563"/>
   <path d="m237.31 53.087c-14.993 19.685-21.351 44.824-19.44 69.337 1.4282 11.987-4.9447 23.146-9.4816 33.854-8.3427 15.962-15.89 33.394-13.608 51.836-0.65803 10.627-5.3792-0.0876-4.882-5.4325-2.261-15.035-3.228-30.627-0.14386-45.521-1.5545-14.494-5.2259-30.205-17.194-39.73 3.554 17.204 8.1721 36.594-0.40625 53.031-3.0778 5.5067-9.9624 7.0124-11.401 13.625-14.443 25.3-15.531 56.843-4.5658 83.628 2.2819 6.1006 5.2584 11.924 7.8421 17.903-8.0473-4.5949-16.878-7.7132-24.656-12.75 10.774 31.546 31.26 62.581 63.599 74.858 12.718 5.4142 26.586 6.4191 40.022 8.5564 29.45 9.1939 65.997 3.1529 85.427-22.475 11.416-14.827 14.587-34.836 10.701-52.908-5.1426 10.401-14.054 18.83-25.562 21.5 2.648-13.353-1.3835-26.715-8.2821-38.137-7.4472-12.187-9.1982-27.592-3.255-40.759 9.0174-19.765 15.833-43.683 5.3314-64.253-3.25-9.4961-5.5378-3.6668-7.1843 3.0592-6.8663 21.121-20.731 39.089-36.422 54.496 1.0866-21.548 8.6046-41.935 11.8-63.117 1.8243-10.791-0.2714-21.619-2.5305-32.069-1.5378-11.742-13.776-17.766-18.939-27.821-9.2013-13.374-12.262-29.995-12.799-45.962l-3.9688 5.25z" fill="url(#m)"/>
   <path d="m234.07 347.32c-45.915-48.514-53.712-82.3-23.391-114.35 34.075-60.642 25.701-98.76 0.86632-135.15 23.391 80.568-27.722 132.55-44.182 155.94-9.8183-30.321-1.4439-43.316 12.128-80.568-26.567 28.877-42.738 63.819-32.92 97.028 17.904 49.958 60.065 60.931 87.498 77.102z" fill="url(#l)" stroke="#ff0" stroke-opacity=".50382" stroke-width="2.1563"/>
   <path d="m289.79 164.02c-6.1548-17.901-1.1322-21.735 4.2592-29.555 5.5616-2.1661 3.857-9.7187 6.8919-26.538 4.5952 18.773 16.931 27.309-11.151 56.093z" fill="#ffd700" stroke="#ff0" stroke-opacity=".50382" stroke-width="2.1563"/>
   <path d="m296.71 104.99c-1.8714 7.9803-1.0254 16.775-4.5 24.219-8.1411 6.2194-11.691 17.776-8.1212 27.584 1.1083 8.2199 3.6793 9.638 8.2371 2.1319 9.7319-10.014 18.837-24.363 13.296-38.712-2.5003-7.3188-4.6896-14.749-7.4746-21.972l-1.4375 6.75z" fill="url(#k)"/>
   <path d="m329.36 273.69c15.883-15.305 12.706-21.947 11.262-32.92-4.6204-5.1979 1.1551-12.128 6.9306-31.188-14.727 17.038-32.054 19.348-18.193 64.108z" fill="#ffd700" stroke="#ff0" stroke-opacity=".50382" stroke-width="2.1563"/>
   <path d="m254.86 347.32c17.904-10.107 22.813-41.872 25.123-77.102 4.3316-34.075 12.995-68.15 70.172-73.637-23.391 18.77-42.45 41.872-33.786 84.899-2.3102 62.664-48.803 60.354-61.509 65.84z" fill="url(#j)" stroke="#ff0" stroke-opacity=".50382" stroke-width="2.1563"/>
   <path d="m343.56 191.6c-24.381 3.4569-49.512 18.105-56.668 42.983-11.484 31.097-5.138 66.49-20.8 96.361-5.9481 2.585-4.494 13.674 2.8518 11.505 21.516-3.9012 41.938-18.849 47.389-40.786 5.2576-15.234 2.2764-31.35 1.717-46.997 0.71542-22.693 13.855-43.158 31.105-57.159 3.0196-4.349-2.0166-5.8119-5.5938-5.9063z" fill="url(#i)"/>
   <path d="m343.86 203.49c-9.825 10.4-24.078 20.133-23.735 36.124-0.72619 11.456 3.3535 22.38 5.8909 33.376 8.5287-8.1385 18.223-18.74 15.099-31.575-0.02222-5.6554-4.2846-10.602-0.93838-16.113 3.2139-8.7256 6.5759-17.408 8.8082-26.469l-5.125 4.6562z" fill="url(#h)"/>
   <path d="m223.67 323.93c-2.3102-27.722-5.4867-47.648 29.455-72.771 59.198-41.294 30.032-65.263-6.9306-108.29 10.973 42.738-6.6418 76.814-21.658 99.627-9.8183 14.15-43.893 43.027-0.86631 81.434z" fill="url(#g)" stroke="#ff0" stroke-opacity=".50382" stroke-width="2.1563"/>
   <path d="m201.09 120.58c15.988-18.41 11.882-25.988 9.2708-38.664-5.5549-5.8435 0.13128-14.122 4.6817-36.476-14.559 20.374-33.348 23.763-13.952 75.141z" fill="#ffd700" stroke="#ff0" stroke-opacity=".50382" stroke-width="2.1563"/>
   <path d="m211.21 41.518c-9.3097 12.174-23.427 23.408-22.688 40.281-0.10028 14.029 5.4291 27.118 9.5625 40.281 8.4403-9.6347 17.42-21.87 13.664-35.446 0.02575-5.3716-3.737-9.5419-3.8454-14.615 2.0569-11.975 6.3126-23.543 7.9944-35.626l-4.6875 5.125z" fill="url(#f)"/>
   <path d="m245.3 135.71c6.4051 29.135-0.19164 59.828-14.936 85.425-9.1536 17.597-27.201 31.074-28.921 52.011-2.7585 18.244 10.387 33.451 22.569 45.241 4.9618 6.239 0.70889-8.5105 1.3842-11.963-1.9797-17.949 1.0987-38.088 15.582-50.4 16.125-15.687 39.124-26.562 46.848-49.109 5.2243-19.913-8.6967-37.762-20.839-51.902-7.3227-8.8853-15.043-17.406-22.72-25.99l1.0312 6.6875z" fill="url(#e)"/>
   <path d="m216.21 109.86c0.63387 13.778 4.5511 27.421 2.7573 41.328-1.5823 32.467-15.848 62.999-35.542 88.414-3.6534 5.1912-7.5445 10.209-11.309 15.32-5.0342-16.773-2.7616-34.858 4.0186-50.775 3.5705-8.5047 6.0765-17.332 7.3876-26.475-18.821 17.169-32.104 40.574-36.781 65.625-3.7916 23.169 4.3591 46.99 19.73 64.403 19.327 22.801 47.117 35.614 74.051 47.066-15.262-21.468-36.508-40.839-41.02-67.962-3.095-15.749 3.1067-31.557 13.45-43.332 11.839-16.266 19.213-35.615 23.594-55.146 5.6889-25.436 1.1286-52.94-12.773-74.997-3.4304-2.5077-9.56-15.684-7.5625-3.4688z" fill="url(#d)"/>
  </g>
  <path d="m394.17 531.13c18.658 71.806 48.176 109.88 101.09 114.24 58.201 24.298 112.23-25.386 96.909-103.36-6.9619 16.682-11.417 25.748-23.392 30.463 4.7341-43.156-25.62-50.409-10.861-96.829 10.304-28.65 16.43-63.827-1.6708-92.477-7.5188 32.639-16.708 54.398-35.088 78.333 1.9493-39.892 18.101-72.168 8.3542-109.88 1.3924-25.386-30.632-24.66-30.911-102.27-20.329 33.364-28.961 59.113-25.898 109.88-7.5188 40.98-25.898 55.849-22.556 100.09-2.7848-24.661-4.7341-46.057-0.83543-64.19-2.2278-22.485-4.4556-41.705-21.721-57.662 5.291 27.924 11.417 69.992-6.6834 80.509-5.0126 13.418-30.075 59.475-2.5063 131.64-8.0758-6.1651-16.152-7.9784-24.227-18.495z" fill="url(#au)" stroke="#ff0" stroke-opacity=".50382" stroke-width="2.373"/>
  <path d="m238.96 752.66c-17.11 46.468-44.18 71.11-92.701 73.927-53.373 15.724-102.92-16.428-88.87-66.886 6.3843 10.796 10.47 16.663 21.451 19.714-4.3414-27.928 23.494-32.622 9.9596-62.662-9.4488-18.54-15.067-41.305 1.5322-59.845 6.8951 21.122 15.322 35.203 32.177 50.693-1.7876-25.816-16.599-46.703-7.6612-71.11-1.2769-16.428 28.091-15.959 28.346-66.182 18.642 21.591 26.559 38.254 23.75 71.11 6.8951 26.52 23.75 36.142 20.685 64.774 2.5537-15.959 4.3414-29.805 0.76613-41.54 2.043-14.551 4.086-26.989 19.919-37.315-4.8521 18.071-10.47 45.295 6.129 52.101 4.5967 8.6834 27.58 38.489 2.2984 85.192 7.4058-3.9897 14.812-5.1631 22.218-11.969z" fill="url(#at)" stroke="#ff0" stroke-opacity=".50382" stroke-width="1.828"/>
  <path d="m100.57 603.05c-9.036 21.465-8.1433 44.728 0.61275 64.78 4.7617 9.6456 1.7064 21.124 0.30903 31.626-3.6188 16.167-6.0503 33.317 1.3573 48.13 2.3506 9.1753-5.2542 1.6711-6.2749-2.9977-6.4291-11.946-11.757-24.782-12.95-38.343-5.5898-11.719-13.58-23.777-27.896-27.928 8.2963 13.356 18.242 28.21 14.528 44.855-1.4424 5.6424-7.7118 9.1455-7.2498 15.189-6.9212 26.022 0.89713 52.976 19.095 72.007 3.9351 4.4046 8.4676 8.3503 12.662 12.554-9.1164-1.2645-18.579-1.0295-27.558-2.7541 19.351 23.109 48 42.636 82.894 42.499 13.887 0.44048 27.653-3.211 41.316-5.7672 31.218-1.8001 65.048-18.75 76.726-46.666 6.9261-16.207 4.3784-34.111-4.4851-48.09-2.0727 10.439-8.3638 20.439-18.801 26.424-1.1833-12.12-8.8628-22.081-18.783-29.475-10.669-7.8618-16.707-20.286-14.634-33.318 3.2046-19.593 3.1002-41.975-12.898-55.916-5.8317-6.9541-6.4156-1.2959-6.1235 4.9105-0.7316 20.04-9.1547 39.69-20.073 57.774-5.0073-18.524-3.4356-38.157-6.2902-57.057-1.263-9.692-6.3475-18.144-11.484-26.224-4.7993-9.4037-18.391-10.514-26.241-17.318-12.709-8.2934-20.361-21.318-25.377-34.609l-2.3809 5.7149z" fill-opacity=".40541"/>
  <path d="m355.24 794.16c7.2132-31.122 14.929-53.251-40.362-87.314-93.828-56.268-42.235-78.877 24.682-121.9-23.494 46.807 1.7875 88.297 24.094 116.58 14.678 17.625 68.067 55.815-8.4136 92.631z" fill="url(#as)" stroke="#ff0" stroke-opacity=".50382" stroke-width="2.9842"/>
  <path d="m43.622 850.51c82.526-47.839 99.633-84.981 52.895-126.18-49.544-74.269-30.948-116.24 14.917-153.64-48.804 87.809 30.232 154.93 54.878 184.11 20.062-32.886 7.655-48.97-10.493-93.428 40.855 37.002 63.622 79.247 43.21 115.41-35.938 53.91-107.65 59.704-155.41 73.732z" fill="url(#ar)" stroke="#ff0" stroke-opacity=".50382" stroke-width="2.9842"/>
  <path d="m292.53 615.77c-14.495 15.095-20.643 34.372-18.795 53.169 1.3808 9.1918-4.7806 17.749-9.167 25.96-8.0659 12.24-15.362 25.607-13.157 39.749-0.6362 8.1488-5.2007-0.06717-4.72-4.1657-2.186-11.529-3.1209-23.485-0.13909-34.907-1.5029-11.114-5.0525-23.162-16.624-30.466 3.4361 13.192 7.901 28.061-0.39277 40.665-2.9757 4.2226-9.6318 5.3772-11.023 10.448-13.964 19.401-15.016 43.589-4.4143 64.128 2.2062 4.678 5.084 9.1438 7.5819 13.728-7.7803-3.5234-16.318-5.9146-23.838-9.7769 10.416 24.19 30.222 47.988 61.489 57.402 12.296 4.1517 25.704 4.9223 38.695 6.5612 28.473 7.05 63.808 2.4177 82.593-17.234 11.037-11.37 14.103-26.713 10.346-40.571-4.9719 7.9754-13.587 14.439-24.714 16.487 2.5602-10.239-1.3376-20.486-8.0073-29.244-7.2001-9.3451-8.893-21.158-3.147-31.255 8.7182-15.156 15.308-33.497 5.1545-49.27-3.1421-7.2818-5.3541-2.8118-6.946 2.3459-6.6385 16.196-20.044 29.974-35.214 41.789 1.0505-16.523 8.3191-32.157 11.408-48.4 1.7638-8.2745-0.2624-16.578-2.4466-24.591-1.4868-9.0041-13.318-13.623-18.31-21.333-8.896-10.255-11.855-23.001-12.374-35.244l-3.8371 4.0258z" fill="url(#aq)"/>
  <path d="m260.82 858.54c-44.391-37.201-51.93-63.109-22.615-87.689 32.945-46.502 24.848-75.731 0.83758-103.63 22.615 61.781-26.802 101.64-42.716 119.58-9.4925-23.251-1.396-33.215 11.726-61.781-25.686 22.144-41.32 48.937-31.828 74.403 17.31 38.308 58.072 46.723 84.595 59.124z" fill="url(#ap)" stroke="#ff0" stroke-opacity=".50382" stroke-width="1.8566"/>
  <path d="m491.84 706.55c-5.9506-13.727-1.0946-16.666 4.1179-22.663 5.3771-1.661 3.729-7.4524 6.6632-20.35 4.4427 14.396 16.37 20.941-10.781 43.014z" fill="#ffd700" stroke="#ff0" stroke-opacity=".50382" stroke-width="1.8566"/>
  <path d="m498.52 661.28c-1.8093 6.1194-0.99138 12.863-4.3507 18.571-7.871 4.7691-11.303 13.631-7.8517 21.152 1.0716 6.3032 3.5573 7.3906 7.9638 1.6348 9.409-7.6791 18.212-18.682 12.855-29.685-2.4173-5.6122-4.534-11.31-7.2266-16.849l-1.3898 5.176z" fill="url(#ao)"/>
  <path d="m530.1 790.64c15.356-11.736 12.284-16.829 10.888-25.244-4.4671-3.9858 1.1168-9.3004 6.7006-23.915-14.239 13.065-30.99 14.836-17.589 49.159z" fill="#ffd700" stroke="#ff0" stroke-opacity=".50382" stroke-width="1.8566"/>
  <path d="m238.06 844.25c17.31-7.7503 22.056-32.108 24.29-59.124 4.1879-26.129 12.564-52.259 67.844-56.466-22.615 14.393-41.041 32.108-32.665 65.102-2.2335 48.052-47.183 46.28-59.468 50.487z" fill="url(#an)" stroke="#ff0" stroke-opacity=".50382" stroke-width="1.8566"/>
  <path d="m258.11 741.99c-23.572 2.6508-47.87 13.883-54.788 32.96-11.103 23.846-4.9675 50.986-20.11 73.891-5.7508 1.9822-4.3449 10.486 2.7572 8.8219 20.803-2.9915 40.546-14.454 45.817-31.276 5.0832-11.681 2.2008-24.04 1.6601-36.038 0.69168-17.402 13.395-33.094 30.073-43.83 2.9194-3.3349-1.9497-4.4567-5.4082-4.5291z" fill="url(#am)"/>
  <path d="m544.11 736.81c-9.499 7.975-23.28 15.438-22.947 27.7-0.7021 8.785 3.2422 17.161 5.6954 25.594 8.2457-6.2408 17.618-14.37 14.598-24.212-0.02148-4.3367-4.1424-8.1302-0.90724-12.356 3.1073-6.691 6.3577-13.349 8.5159-20.297l-4.955 3.5705z" fill="url(#al)"/>
  <path d="m119.34 849.17c-2.2335-21.258-5.3046-36.537 28.478-55.802 57.234-31.665 29.036-50.045-6.7006-83.039 10.609 32.773-6.4214 58.902-20.939 76.396-9.4925 10.85-42.437 32.994-0.83756 62.445z" fill="url(#ak)" stroke="#ff0" stroke-opacity=".50382" stroke-width="1.8566"/>
  <path d="m406.08 673.24c15.458-14.117 11.488-19.928 8.9632-29.648-5.3706-4.4809 0.12693-10.829 4.5263-27.971-14.076 15.623-32.242 18.222-13.49 57.619z" fill="#ffd700" stroke="#ff0" stroke-opacity=".50382" stroke-width="1.8566"/>
  <path d="m415.86 612.61c-9.0008 9.3354-22.65 17.95-21.935 30.888-0.09696 10.758 5.249 20.795 9.2452 30.888 8.1602-7.3881 16.842-16.77 13.21-27.181 0.02489-4.119-3.613-7.3169-3.7179-11.207 1.9886-9.1829 6.1032-18.053 7.7291-27.319l-4.532 3.93z" fill="url(#aj)"/>
  <path d="m180.26 684.84c6.1926 22.342-0.18528 45.878-14.44 65.505-8.8499 13.494-26.298 23.828-27.961 39.883-2.667 13.99 10.043 25.651 21.82 34.692 4.7972 4.7842 0.68537-6.526 1.3383-9.1736-1.914-13.763 1.0623-29.206 15.065-38.647 15.59-12.029 37.826-20.368 45.293-37.658 5.051-15.27-8.4081-28.956-20.147-39.799-7.0797-6.8134-14.544-13.347-21.966-19.93l0.99703 5.1281z" fill="url(#ai)"/>
  <path d="m69.266 653.59c0.61284 10.565 4.4001 21.027 2.6658 31.691-1.5298 24.896-15.322 48.309-34.363 67.798-3.5322 3.9807-7.2942 7.8287-10.934 11.748-4.8671-12.862-2.6699-26.73 3.8853-38.935 3.452-6.5216 5.8749-13.29 7.1425-20.302-18.196 13.166-31.038 31.113-35.561 50.322-3.6658 17.767 4.2145 36.033 19.076 49.385 18.686 17.485 45.553 27.309 71.594 36.091-14.756-16.462-35.297-31.316-39.659-52.115-2.9923-12.077 3.0036-24.198 13.004-33.228 11.447-12.473 18.576-27.31 22.811-42.287 5.5002-19.505 1.0911-40.595-12.349-57.509-3.3166-1.923-9.2428-12.027-7.3116-2.6599z" fill="url(#ah)"/>
  <g transform="matrix(-.78971 0 0 .62634 578.64 622.31)">
   <path d="m135.31 265.02c19.348 57.177 49.958 87.498 104.82 90.964 60.354 19.348 116.38-20.214 100.49-82.3-7.2193 13.284-11.84 20.503-24.257 24.257 4.9092-34.364-26.567-40.139-11.262-77.102 10.685-22.813 17.038-50.824-1.7326-73.637-7.7969 25.99-17.326 43.316-36.385 62.375 2.0214-31.765 18.77-57.466 8.6632-87.498 1.4439-20.214-31.765-19.637-32.054-81.434-21.08 26.567-30.032 47.07-26.856 87.498-7.7969 32.631-26.856 44.471-23.391 79.701-2.8877-19.637-4.9091-36.674-0.86633-51.113-2.3102-17.904-4.6204-33.209-22.524-45.915 5.4867 22.236 11.84 55.733-6.9306 64.108-5.1979 10.685-31.187 47.359-2.599 104.82-8.3744-4.9091-16.749-6.353-25.123-14.727z" fill="url(#n)" stroke="#ff0" stroke-opacity=".50382" stroke-width="2.1563"/>
   <path d="m237.31 53.087c-14.993 19.685-21.351 44.824-19.44 69.337 1.4282 11.987-4.9447 23.146-9.4816 33.854-8.3427 15.962-15.89 33.394-13.608 51.836-0.65803 10.627-5.3792-0.0876-4.882-5.4325-2.261-15.035-3.228-30.627-0.14386-45.521-1.5545-14.494-5.2259-30.205-17.194-39.73 3.554 17.204 8.1721 36.594-0.40625 53.031-3.0778 5.5067-9.9624 7.0124-11.401 13.625-14.443 25.3-15.531 56.843-4.5658 83.628 2.2819 6.1006 5.2584 11.924 7.8421 17.903-8.0473-4.5949-16.878-7.7132-24.656-12.75 10.774 31.546 31.26 62.581 63.599 74.858 12.718 5.4142 26.586 6.4191 40.022 8.5564 29.45 9.1939 65.997 3.1529 85.427-22.475 11.416-14.827 14.587-34.836 10.701-52.908-5.1426 10.401-14.054 18.83-25.562 21.5 2.648-13.353-1.3835-26.715-8.2821-38.137-7.4472-12.187-9.1982-27.592-3.255-40.759 9.0174-19.765 15.833-43.683 5.3314-64.253-3.25-9.4961-5.5378-3.6668-7.1843 3.0592-6.8663 21.121-20.731 39.089-36.422 54.496 1.0866-21.548 8.6046-41.935 11.8-63.117 1.8243-10.791-0.2714-21.619-2.5305-32.069-1.5378-11.742-13.776-17.766-18.939-27.821-9.2013-13.374-12.262-29.995-12.799-45.962l-3.9688 5.25z" fill="url(#m)"/>
   <path d="m234.07 347.32c-45.915-48.514-53.712-82.3-23.391-114.35 34.075-60.642 25.701-98.76 0.86632-135.15 23.391 80.568-27.722 132.55-44.182 155.94-9.8183-30.321-1.4439-43.316 12.128-80.568-26.567 28.877-42.738 63.819-32.92 97.028 17.904 49.958 60.065 60.931 87.498 77.102z" fill="url(#l)" stroke="#ff0" stroke-opacity=".50382" stroke-width="2.1563"/>
   <path d="m289.79 164.02c-6.1548-17.901-1.1322-21.735 4.2592-29.555 5.5616-2.1661 3.857-9.7187 6.8919-26.538 4.5952 18.773 16.931 27.309-11.151 56.093z" fill="#ffd700" stroke="#ff0" stroke-opacity=".50382" stroke-width="2.1563"/>
   <path d="m296.71 104.99c-1.8714 7.9803-1.0254 16.775-4.5 24.219-8.1411 6.2194-11.691 17.776-8.1212 27.584 1.1083 8.2199 3.6793 9.638 8.2371 2.1319 9.7319-10.014 18.837-24.363 13.296-38.712-2.5003-7.3188-4.6896-14.749-7.4746-21.972l-1.4375 6.75z" fill="url(#k)"/>
   <path d="m329.36 273.69c15.883-15.305 12.706-21.947 11.262-32.92-4.6204-5.1979 1.1551-12.128 6.9306-31.188-14.727 17.038-32.054 19.348-18.193 64.108z" fill="#ffd700" stroke="#ff0" stroke-opacity=".50382" stroke-width="2.1563"/>
   <path d="m254.86 347.32c17.904-10.107 22.813-41.872 25.123-77.102 4.3316-34.075 12.995-68.15 70.172-73.637-23.391 18.77-42.45 41.872-33.786 84.899-2.3102 62.664-48.803 60.354-61.509 65.84z" fill="url(#j)" stroke="#ff0" stroke-opacity=".50382" stroke-width="2.1563"/>
   <path d="m343.56 191.6c-24.381 3.4569-49.512 18.105-56.668 42.983-11.484 31.097-5.138 66.49-20.8 96.361-5.9481 2.585-4.494 13.674 2.8518 11.505 21.516-3.9012 41.938-18.849 47.389-40.786 5.2576-15.234 2.2764-31.35 1.717-46.997 0.71542-22.693 13.855-43.158 31.105-57.159 3.0196-4.349-2.0166-5.8119-5.5938-5.9063z" fill="url(#i)"/>
   <path d="m343.86 203.49c-9.825 10.4-24.078 20.133-23.735 36.124-0.72619 11.456 3.3535 22.38 5.8909 33.376 8.5287-8.1385 18.223-18.74 15.099-31.575-0.02222-5.6554-4.2846-10.602-0.93838-16.113 3.2139-8.7256 6.5759-17.408 8.8082-26.469l-5.125 4.6562z" fill="url(#h)"/>
   <path d="m223.67 323.93c-2.3102-27.722-5.4867-47.648 29.455-72.771 59.198-41.294 30.032-65.263-6.9306-108.29 10.973 42.738-6.6418 76.814-21.658 99.627-9.8183 14.15-43.893 43.027-0.86631 81.434z" fill="url(#g)" stroke="#ff0" stroke-opacity=".50382" stroke-width="2.1563"/>
   <path d="m201.09 120.58c15.988-18.41 11.882-25.988 9.2708-38.664-5.5549-5.8435 0.13128-14.122 4.6817-36.476-14.559 20.374-33.348 23.763-13.952 75.141z" fill="#ffd700" stroke="#ff0" stroke-opacity=".50382" stroke-width="2.1563"/>
   <path d="m211.21 41.518c-9.3097 12.174-23.427 23.408-22.688 40.281-0.10028 14.029 5.4291 27.118 9.5625 40.281 8.4403-9.6347 17.42-21.87 13.664-35.446 0.02575-5.3716-3.737-9.5419-3.8454-14.615 2.0569-11.975 6.3126-23.543 7.9944-35.626l-4.6875 5.125z" fill="url(#f)"/>
   <path d="m245.3 135.71c6.4051 29.135-0.19164 59.828-14.936 85.425-9.1536 17.597-27.201 31.074-28.921 52.011-2.7585 18.244 10.387 33.451 22.569 45.241 4.9618 6.239 0.70889-8.5105 1.3842-11.963-1.9797-17.949 1.0987-38.088 15.582-50.4 16.125-15.687 39.124-26.562 46.848-49.109 5.2243-19.913-8.6967-37.762-20.839-51.902-7.3227-8.8853-15.043-17.406-22.72-25.99l1.0312 6.6875z" fill="url(#e)"/>
   <path d="m216.21 109.86c0.63387 13.778 4.5511 27.421 2.7573 41.328-1.5823 32.467-15.848 62.999-35.542 88.414-3.6534 5.1912-7.5445 10.209-11.309 15.32-5.0342-16.773-2.7616-34.858 4.0186-50.775 3.5705-8.5047 6.0765-17.332 7.3876-26.475-18.821 17.169-32.104 40.574-36.781 65.625-3.7916 23.169 4.3591 46.99 19.73 64.403 19.327 22.801 47.117 35.614 74.051 47.066-15.262-21.468-36.508-40.839-41.02-67.962-3.095-15.749 3.1067-31.557 13.45-43.332 11.839-16.266 19.213-35.615 23.594-55.146 5.6889-25.436 1.1286-52.94-12.773-74.997-3.4304-2.5077-9.56-15.684-7.5625-3.4688z" fill="url(#d)"/>
  </g>
  <path d="m478.56 660.8c11.84 12.33 16.861 28.075 15.352 43.429-1.1279 7.5079 3.9049 14.498 7.4877 21.205 6.5883 9.9976 12.548 20.916 10.747 32.467 0.51965 6.656 4.248-0.05487 3.8554-3.4026 1.7855-9.4173 2.5492-19.183 0.11361-28.512 1.2276-9.078 4.1269-18.919 13.578-24.885-2.8066 10.776-6.4536 22.921 0.32082 33.216 2.4306 3.4491 7.8673 4.3922 9.0037 8.5339 11.406 15.847 12.265 35.603 3.6057 52.38-1.8021 3.8211-4.1526 7.4687-6.193 11.213 6.355-2.878 13.329-4.8311 19.471-7.9859-8.5081 19.759-24.686 39.197-50.225 46.887-10.043 3.3911-20.995 4.0206-31.606 5.3592-23.257 5.7585-52.118 1.9748-67.463-14.077-9.0154-9.2867-11.52-21.819-8.4508-33.139 4.0611 6.5144 11.098 11.794 20.187 13.466-2.0911-8.3636 1.0926-16.733 6.5404-23.887 5.8811-7.6332 7.2638-17.282 2.5705-25.529-7.1211-12.38-12.504-27.36-4.2102-40.245 2.5665-5.9478 4.3732-2.2967 5.6735 1.9161 5.4224 13.229 16.372 24.483 28.763 34.133-0.85807-13.496-6.7951-26.266-9.3182-39.533-1.4407-6.7587 0.21433-13.541 1.9984-20.086 1.2144-7.3546 10.879-11.127 14.956-17.425 7.2664-8.3764 9.6832-18.787 10.107-28.788l3.1342 3.2883z" fill="url(#ag)"/>
  <path d="m461.13 842.24c36.259-30.386 42.417-51.548 18.472-71.625-26.909-37.983-20.296-61.858-0.68414-84.648-18.472 50.463 21.892 83.02 34.891 97.67 7.7536-18.991 1.1402-27.131-9.5779-50.463 20.98 18.087 33.751 39.972 25.997 60.773-14.139 31.291-47.434 38.164-69.098 48.293z" fill="url(#af)" stroke="#ff0" stroke-opacity=".50382" stroke-width="1.5165"/>
  <path d="m582.84 730.29c4.8605-11.212 0.89412-13.613-3.3635-18.512-4.3921-1.3567-3.0459-6.0872-5.4426-16.622-3.6288 11.759-13.371 17.105 8.8061 35.134z" fill="#ffd700" stroke="#ff0" stroke-opacity=".50382" stroke-width="1.5165"/>
  <path d="m577.38 693.31c1.4779 4.9984 0.80977 10.507 3.5537 15.169 6.4291 3.8955 9.2324 11.134 6.4133 17.277-0.87526 5.1485-2.9056 6.0367-6.5049 1.3353-7.6853-6.2724-14.876-15.259-10.5-24.247 1.9745-4.5841 3.7034-9.238 5.9027-13.762l1.1352 4.2278z" fill="url(#ae)"/>
  <path d="m551.59 798.97c-12.543-9.5862-10.034-13.746-8.8938-20.619 3.6487-3.2557-0.91218-7.5966-5.4731-19.534 11.63 10.671 25.313 12.118 14.367 40.153z" fill="#ffd700" stroke="#ff0" stroke-opacity=".50382" stroke-width="1.5165"/>
  <path d="m287.56 513.67c-14.139-6.3305-18.016-26.226-19.84-48.293-3.4207-21.343-10.262-42.686-55.415-46.122 18.472 11.757 33.523 26.226 26.681 53.176 1.8244 39.249 38.54 37.802 48.574 41.239z" fill="url(#ad)" stroke="#ff0" stroke-opacity=".50382" stroke-width="1.5165"/>
  <path d="m543.23 516.14c19.254 2.1652 39.1 11.34 44.751 26.922 9.0687 19.477 4.0575 41.646 16.426 60.355 4.6973 1.6191 3.5489 8.5648-2.2521 7.2058-16.992-2.4435-33.118-11.806-37.423-25.546-4.152-9.5415-1.7976-19.636-1.356-29.436-0.56497-14.214-10.942-27.032-24.564-35.801-2.3846-2.724 1.5925-3.6402 4.4174-3.6994z" fill="url(#ac)"/>
  <path d="m540.14 755.01c7.7588 6.514 19.015 12.61 18.743 22.626 0.57348 7.1757-2.6483 14.017-4.6521 20.905-6.7352-5.0975-14.391-11.738-11.924-19.777 0.01755-3.5422 3.3836-6.6408 0.74105-10.092-2.538-5.4652-5.193-10.903-6.9559-16.579l4.0472 2.9164z" fill="url(#ab)"/>
  <path d="m275.05 836.16c1.8244-17.364 4.3329-29.844-23.261-45.579-46.749-25.865-23.717-40.877 5.4731-67.827-8.6658 26.769 5.2451 48.112 17.103 62.4 7.7536 8.8627 34.663 26.95 0.68413 51.006z" fill="url(#aa)" stroke="#ff0" stroke-opacity=".50382" stroke-width="1.5165"/>
  <path d="m392.88 554.51c-12.626-11.531-9.3834-16.278-7.3212-24.217 4.3867-3.66-0.10368-8.8455-3.6972-22.847 11.498 12.761 26.335 14.884 11.018 47.064z" fill="#ffd700" stroke="#ff0" stroke-opacity=".50382" stroke-width="1.5165"/>
  <path d="m536.32 687.84c7.3519 7.6252 18.501 14.661 17.916 25.23 0.07919 8.7872-4.2874 16.985-7.5516 25.23-6.6653-6.0346-13.757-13.698-10.79-22.201-0.02034-3.3644 2.9511-5.9765 3.0368-9.1541-1.6243-7.5007-4.9851-14.746-6.3132-22.314l3.7018 3.21z" fill="url(#z)"/>
  <path d="m489.4 729.7c-5.0581 18.249 0.15134 37.473 11.795 53.505 7.2287 11.022 21.481 19.463 22.839 32.577 2.1784 11.427-8.2029 20.952-17.823 28.336-3.9184 3.9078-0.55981-5.3305-1.0931-7.4931 1.5634-11.242-0.86768-23.856-12.306-31.568-12.734-9.8257-30.896-16.637-36.996-30.759-4.1257-12.472 6.8678-23.652 16.456-32.508 5.7828-5.5653 11.88-10.902 17.942-16.279l-0.81439 4.1887z" fill="url(#y)"/>
  <path d="m472.37 690.65c-0.50058 8.6296-3.594 17.175-2.1775 25.886 1.2496 20.335 12.515 39.459 28.068 55.378 2.8851 3.2515 5.9579 6.3945 8.9309 9.5956 3.9755-10.506 2.1808-21.833-3.1736-31.802-2.8196-5.3269-4.7986-10.856-5.834-16.583 14.863 10.754 25.352 25.413 29.046 41.104 2.9943 14.512-3.4424 29.432-15.581 40.338-15.263 14.282-37.208 22.306-58.478 29.479 12.053-13.446 28.831-25.579 32.394-42.568 2.4441-9.8645-2.4534-19.765-10.621-27.141-9.3496-10.188-15.173-22.307-18.632-34.54-4.4926-15.932-0.89123-33.158 10.087-46.974 2.709-1.5707 7.5496-9.8239 5.9722-2.1726z" fill="url(#x)"/>
  <path d="m453.83 299.93c22.646 40.213 30.217 88.277 24.058 133.06-3.8357 21.771 5.4523 44.02 11.73 64.964 11.995 31.625 22.483 65.761 16.442 99.235-0.18813 19.795 8.9907 1.2219 8.8079-8.7772 5.595-27.187 9.0972-55.734 5.7518-84.035 4.35-26.368 12.381-54.44 33.515-68.953-8.0162 30.859-18.074 65.482-5.7427 98.046 4.4714 10.962 15.782 15.514 17.384 28.096 21.048 50.442 19.045 108.98-2.5033 155.62-4.5482 10.68-10.222 20.67-15.259 31.047 13.991-6.4161 29.111-9.9034 42.706-17.205-21.805 55.49-59.763 107.54-115.24 121.89-21.886 6.7279-45.161 5.0163-67.85 5.5072-50.279 9.4041-110.56-11.154-139.89-63.483-17.263-30.32-20.135-68.09-11.459-100.47 7.3258 20.532 21.182 38.392 40.072 46.283-2.8039-25.343 5.5443-48.984 18.444-68.303 13.908-20.592 18.696-48.593 10.369-74.44-12.661-38.822-21.143-84.749-1.1207-120.04 6.5754-16.702 9.6889-5.3476 11.623 7.498 8.9055 40.774 29.877 77.525 54.206 110.02 0.79502-40.075-9.2873-79.662-12.056-119.6-1.7391-20.398 3.0707-39.858 8.1073-58.576 3.989-21.291 25.148-29.267 34.986-46.509 16.98-22.332 24.102-52.243 26.932-81.593l5.9899 10.717z" fill="url(#w)"/>
  <path d="m341.36 476.36c12.442-19.358 4.5217-24.507-3.532-34.243-9.0225-3.3402-5.2622-11.649-8.2922-31.233-9.9443 20.596-31.572 28.34 11.824 65.476z" fill="#ffd700" stroke="#ff0" stroke-opacity=".50382" stroke-width="2.9842"/>
  <path d="m594.11 542.5c2.1579 9.3601-0.31926 19.216 4.5801 28.22 12.838 8.352 17.365 22.04 10.218 32.614-2.8456 9.161-7.3094 10.365-14.009 1.1184-15.034-12.914-28.498-30.651-17.51-46.073 5.0602-7.9173 9.6147-16.01 15.139-23.774l1.5825 7.8942z" fill="url(#v)"/>
  <path d="m150.4 460.1c-10.493-47.377-1.7938-51.882 7.5717-65.391 9.6175-0.12269 6.7305-19.318 12.094-55.988 7.7941 48.032 29.028 78.986-19.666 121.38z" fill="#ffd700" stroke="#ff0" stroke-opacity=".50382" stroke-width="3.7231"/>
  <path d="m136.82 256.33c40.284 7.7835 80.465 28.396 89.399 57.786 15.406 37.137 0.52697 76.333 23.058 112.74 9.617 3.8771 5.8467 16.242-6.1538 12.616-35.448-7.8349-67.73-28.043-74.174-53.822-6.9327-18.134-0.00444-35.968 2.8239-53.652 1.5533-25.889-17.905-51.211-45.006-69.842-4.5144-5.4173 4.0702-6.2822 10.053-5.8235z" fill="url(#u)"/>
  <path d="m477.74 735.49c15.143 13.367 37.76 26.677 35.249 44.784-0.17482 13.127-8.3081 24.889-13.876 36.978-13.253-10.593-28.153-24.168-21.384-38.251 0.72184-6.42 8.4365-11.365 3.5175-18.153-4.3089-10.419-8.8702-20.813-11.5-31.457l7.992 6.0994z" fill="url(#t)"/>
  <path d="m228.99 441.05c-24.462-23.44-16.69-31.398-10.795-45.382 9.981-5.7583 1.4908-16.061-3.3992-42.171 21.839 25.444 52.795 32.266 14.195 87.553z" fill="#ffd700" stroke="#ff0" stroke-opacity=".50382" stroke-width="2.9842"/>
  <path d="m253.1 432.51c14.068 15.3 36.276 30.293 32.998 49.341-1.5312 15.951-12.347 29.943-20.841 44.239-12.924-12.278-26.434-27.596-18.519-42.422 0.60739-6.1052 7.394-10.247 8.1893-15.992-1.9838-13.927-7.688-27.739-9.0324-41.729l7.2049 6.5626z" fill="url(#s)"/>
  <path d="m705.42 274.7c-20.516 21.567-29.562 50.302-28.403 78.432-0.12848 18.896 10.166 38.342 1.3773 56.69-6.4723 16.557-26.411 23.395-43.743 27.799-7.774 3 3.5633-7.4627 4.6438-10.665 10.787-14.173 17.9-32.464 10.382-49.326-7.3858-20.435-23.637-39.929-19.701-62.336 4.9798-19.068 26.962-27.775 45.425-34.17 11.313-4.157 22.819-7.8289 34.315-11.574l-4.2957 5.1482z" fill="url(#r)"/>
  <path d="m339.17 262.79c-3.2745 20.94-13.113 40.975-11.539 62.63-1.5488 50 22.615 99.742 58.407 142.81 6.5705 8.7191 13.643 17.224 20.448 25.844 12.533-24.584 10.606-52.732-0.67393-78.524-5.9223-13.77-9.6634-27.806-10.963-42.072 35.241 30.273 58.47 68.903 64.206 108.22 4.2332 36.249-15.574 70.95-48.927 94.31-42.068 30.76-99.651 44.438-155.32 56.217 33.724-29.587 79.141-54.691 92.132-95.219 8.4959-23.432-1.6402-48.933-20.666-69.148-21.373-27.404-33.345-58.572-39.288-89.381-7.7077-40.121 5.4357-81.219 36.517-112 7.2428-3.105 21.449-21.955 15.668-3.6947z" fill="url(#q)"/>
  <path d="m392.59 472.19c10.272 1.092 16.144-0.26546 39.913-8.3718 1.2712-1.5458 27.392-7.1485-23.898-64.451-9.897-106.5-59.382-81.814-84.73-106.07 0.50654 24.895-62.163 28.848-58.91 111.43-9.1024 2.3893-10.11 9.1513-35.409 6.0742-3.6002 17.492 17.969 11.463 17.969 11.463l16.916 41.745-5.09 49.242-14.371 28.705c-26.093 21.208-68.383 33.667-89.077 83.302-13.497 51.382-34.087 108.74-62.353 182.44-3.972 27.781 5.09 59.313 6.3628 57.765l400.84 0.53109s-11.454-24.738-10.18-26.282c1.2712-1.5476-2.545-26.285-1.2737-26.285s15.645 12.369 15.645 12.369c33.05 4.2324 49.904-13.398 72.159-23.377l19.089-43.104s-8.1637-41.107-6.8901-42.651c1.2712-1.5476 19.615-16.103 19.615-17.648 0-1.5476 1.2712-15.461 1.2712-15.461l10.18-18.553s-6.3612-9.2765-5.09-12.369 13.316-16.93 13.316-16.93l22.316 27.751 13.996 23.193c33.909-22.801 46.222-33.577 58.535-61.844 0 0-26.721-20.101-27.995-20.101s-39.446-35.559-39.446-35.559-31.814-17.009-33.087-17.009-41.991 1.5446-41.991 1.5446l30.54 27.833-16.544 21.645 10.18 15.461s-13.996 13.913-15.27 13.913c-7.6549-10.151-18.011 2.6547-28.367 15.461 0 0-3.0465 27.112-22.314 23.832-20.169-38.265-40.566-89.674-39.667-91.861l-41.991-38.654s-38.175-12.369-38.175-13.913v-10.824l22.905-3.0922-0.74493-14.818s-38.987 5.1979-50.155-8.3716c-4.874-5.9219 0.74492-10.637 1.2713-18.101z" fill="#2b2d21" stroke="url(#p)" stroke-width="3.4211"/>
 </g>
</svg>
